<svg width="888" height="1092" xmlns="http://www.w3.org/2000/svg" xmlns:xlink="http://www.w3.org/1999/xlink" xml:space="preserve" overflow="hidden"><g transform="translate(-1756 -1183)"><path d="M1763 1267.48C1763 1224.69 1797.69 1190 1840.48 1190L2559.47 1190C2602.26 1190 2636.95 1224.69 2636.95 1267.48L2636.95 2135.52C2636.95 2178.31 2602.26 2213 2559.47 2213L1840.48 2213C1797.69 2213 1763 2178.31 1763 2135.52Z" stroke="#000000" stroke-width="13.75" stroke-miterlimit="8" fill="#9D1313" fill-rule="evenodd"/><path d="M1763 1267.49C1763 1224.69 1797.69 1190 1840.49 1190L2559.51 1190C2602.31 1190 2637 1224.69 2637 1267.49L2637 1986.51C2637 2029.31 2602.31 2064 2559.51 2064L1840.49 2064C1797.69 2064 1763 2029.31 1763 1986.51Z" stroke="#000000" stroke-width="13.75" stroke-miterlimit="8" fill="#C31718" fill-rule="evenodd"/><path d="M1819 1313.56C1819 1276.25 1849.25 1246 1886.56 1246L2513.44 1246C2550.75 1246 2581 1276.25 2581 1313.56L2581 1940.44C2581 1977.75 2550.75 2008 2513.44 2008L1886.56 2008C1849.25 2008 1819 1977.75 1819 1940.44Z" stroke="#000000" stroke-width="13.75" stroke-miterlimit="8" fill="#FFFFFF" fill-rule="evenodd"/><text fill="#FFFFFF" font-family="BankGothic Lt BT,BankGothic Lt BT_MSFontService,sans-serif" font-weight="700" font-stretch="semi-expanded" font-size="119" transform="matrix(1 0 0 1 1828.92 2171)">VAULT ITEM</text><path d="M2239 1700C2239 1678.46 2256.46 1661 2278 1661L2434 1661C2455.54 1661 2473 1678.46 2473 1700L2473 1856C2473 1877.54 2455.54 1895 2434 1895L2278 1895C2256.46 1895 2239 1877.54 2239 1856Z" stroke="#3A3A3A" stroke-width="27.5" stroke-miterlimit="8" fill="none" fill-rule="evenodd"/><path d="M2239 1398C2239 1376.46 2256.46 1359 2278 1359L2434 1359C2455.54 1359 2473 1376.46 2473 1398L2473 1554C2473 1575.54 2455.54 1593 2434 1593L2278 1593C2256.46 1593 2239 1575.54 2239 1554Z" stroke="#3A3A3A" stroke-width="27.5" stroke-miterlimit="8" fill="none" fill-rule="evenodd"/><path d="M1927 1700C1927 1678.46 1944.46 1661 1966 1661L2122 1661C2143.54 1661 2161 1678.46 2161 1700L2161 1856C2161 1877.54 2143.54 1895 2122 1895L1966 1895C1944.46 1895 1927 1877.54 1927 1856Z" stroke="#3A3A3A" stroke-width="27.5" stroke-miterlimit="8" fill="#AEAEAE" fill-rule="evenodd"/><path d="M1927 1398C1927 1376.46 1944.46 1359 1966 1359L2122 1359C2143.54 1359 2161 1376.46 2161 1398L2161 1554C2161 1575.54 2143.54 1593 2122 1593L1966 1593C1944.46 1593 1927 1575.54 1927 1554Z" stroke="#3A3A3A" stroke-width="27.5" stroke-miterlimit="8" fill="none" fill-rule="evenodd"/></g></svg>